<svg width="32" height="32" viewBox="0 0 32 32" fill="none" xmlns="http://www.w3.org/2000/svg">
<rect x="0.666667" y="0.666667" width="30.6667" height="30.6667" rx="7.33333" fill="#43A824" fill-opacity="0.12"/>
<rect x="0.666667" y="0.666667" width="30.6667" height="30.6667" rx="7.33333" stroke="#B2E0C7" stroke-width="1.33333"/>
<path d="M10.5792 14.9731L12.8829 11.0718H14.7114L11.5582 16.2491L14.7978 21.4998H12.9404L10.5792 17.5398L8.21793 21.4998H6.375L9.61453 16.2491L6.44699 11.0718H8.27552L10.5792 14.9731Z" fill="#03B958"/>
<path d="M17.6629 21.5H16.1367V10.5H17.6629V21.5Z" fill="#03B958"/>
<path d="M22.2705 16.4399L23.8399 13.7559H25.5388L23.1488 17.5692L25.6252 21.4999H23.9262L22.2849 18.7132L20.6435 21.4999H18.9302L21.4066 17.5692L19.0166 13.7559H20.7155L22.2705 16.4399Z" fill="#03B958"/>
</svg>
