<svg width="32" height="32" viewBox="0 0 32 32" fill="none" xmlns="http://www.w3.org/2000/svg">
<path d="M8 0.5H24C28.1421 0.5 31.5 3.85786 31.5 8V24C31.5 28.1421 28.1421 31.5 24 31.5H8C3.85786 31.5 0.5 28.1421 0.5 24V8C0.5 3.85786 3.85786 0.5 8 0.5Z" fill="white"/>
<path d="M8 0.5H24C28.1421 0.5 31.5 3.85786 31.5 8V24C31.5 28.1421 28.1421 31.5 24 31.5H8C3.85786 31.5 0.5 28.1421 0.5 24V8C0.5 3.85786 3.85786 0.5 8 0.5Z" stroke="#E5E5E7"/>
<g clip-path="url(#clip0_222_17113)">
<path d="M16 9C15.175 9 14.5 9.675 14.5 10.5C14.5 11.325 15.175 12 16 12C16.825 12 17.5 11.325 17.5 10.5C17.5 9.675 16.825 9 16 9ZM16 20C15.175 20 14.5 20.675 14.5 21.5C14.5 22.325 15.175 23 16 23C16.825 23 17.5 22.325 17.5 21.5C17.5 20.675 16.825 20 16 20ZM16 14.5C15.175 14.5 14.5 15.175 14.5 16C14.5 16.825 15.175 17.5 16 17.5C16.825 17.5 17.5 16.825 17.5 16C17.5 15.175 16.825 14.5 16 14.5Z" fill="#272937"/>
</g>
<defs>
<clipPath id="clip0_222_17113">
<rect width="24" height="24" fill="white" transform="translate(4 4)"/>
</clipPath>
</defs>
</svg>
