<svg width="32" height="32" viewBox="0 0 32 32" fill="none" xmlns="http://www.w3.org/2000/svg">
<path d="M8 0.5H24C28.1421 0.5 31.5 3.85786 31.5 8V24C31.5 28.1421 28.1421 31.5 24 31.5H8C3.85786 31.5 0.5 28.1421 0.5 24V8C0.5 3.85786 3.85786 0.5 8 0.5Z" fill="#E8E6FE"/>
<path d="M8 0.5H24C28.1421 0.5 31.5 3.85786 31.5 8V24C31.5 28.1421 28.1421 31.5 24 31.5H8C3.85786 31.5 0.5 28.1421 0.5 24V8C0.5 3.85786 3.85786 0.5 8 0.5Z" stroke="#B6B0FF"/>
<g clip-path="url(#clip0_58_41089)">
<path opacity="0.4" d="M19.5799 15.9999C19.5799 17.9799 17.9799 19.5799 15.9999 19.5799C14.0199 19.5799 12.4199 17.9799 12.4199 15.9999C12.4199 14.0199 14.0199 12.4199 15.9999 12.4199C17.9799 12.4199 19.5799 14.0199 19.5799 15.9999Z" stroke="#6155F5" stroke-width="1.5" stroke-linecap="round" stroke-linejoin="round"/>
<path d="M16.0001 24.2702C19.5301 24.2702 22.8201 22.1902 25.1101 18.5902C26.0101 17.1802 26.0101 14.8102 25.1101 13.4002C22.8201 9.80021 19.5301 7.72021 16.0001 7.72021C12.4701 7.72021 9.18009 9.80021 6.89009 13.4002C5.99009 14.8102 5.99009 17.1802 6.89009 18.5902C9.18009 22.1902 12.4701 24.2702 16.0001 24.2702Z" stroke="#6155F5" stroke-width="1.5" stroke-linecap="round" stroke-linejoin="round"/>
</g>
<defs>
<clipPath id="clip0_58_41089">
<rect width="24" height="24" fill="white" transform="translate(4 4)"/>
</clipPath>
</defs>
</svg>
