<svg width="40" height="40" viewBox="0 0 40 40" fill="none" xmlns="http://www.w3.org/2000/svg">
<rect width="40" height="40" rx="8" fill="#E9E9E9"/>
<g clip-path="url(#clip0_113_34131)">
<path d="M20 23C21.6569 23 23 21.6569 23 20C23 18.3431 21.6569 17 20 17C18.3431 17 17 18.3431 17 20C17 21.6569 18.3431 23 20 23Z" stroke="#292D32" stroke-width="1.5" stroke-miterlimit="10" stroke-linecap="round" stroke-linejoin="round"/>
<path d="M10 20.8799V19.1199C10 18.0799 10.85 17.2199 11.9 17.2199C13.71 17.2199 14.45 15.9399 13.54 14.3699C13.02 13.4699 13.33 12.2999 14.24 11.7799L15.97 10.7899C16.76 10.3199 17.78 10.5999 18.25 11.3899L18.36 11.5799C19.26 13.1499 20.74 13.1499 21.65 11.5799L21.76 11.3899C22.23 10.5999 23.25 10.3199 24.04 10.7899L25.77 11.7799C26.68 12.2999 26.99 13.4699 26.47 14.3699C25.56 15.9399 26.3 17.2199 28.11 17.2199C29.15 17.2199 30.01 18.0699 30.01 19.1199V20.8799C30.01 21.9199 29.16 22.7799 28.11 22.7799C26.3 22.7799 25.56 24.0599 26.47 25.6299C26.99 26.5399 26.68 27.6999 25.77 28.2199L24.04 29.2099C23.25 29.6799 22.23 29.3999 21.76 28.6099L21.65 28.4199C20.75 26.8499 19.27 26.8499 18.36 28.4199L18.25 28.6099C17.78 29.3999 16.76 29.6799 15.97 29.2099L14.24 28.2199C13.33 27.6999 13.02 26.5299 13.54 25.6299C14.45 24.0599 13.71 22.7799 11.9 22.7799C10.85 22.7799 10 21.9199 10 20.8799Z" stroke="#292D32" stroke-width="1.5" stroke-miterlimit="10" stroke-linecap="round" stroke-linejoin="round"/>
</g>
<defs>
<clipPath id="clip0_113_34131">
<rect width="24" height="24" fill="white" transform="translate(8 8)"/>
</clipPath>
</defs>
</svg>
